<?xml version="1.0" encoding="utf-8"?>
<!-- Generator: Adobe Illustrator 16.0.0, SVG Export Plug-In . SVG Version: 6.00 Build 0)  -->
<!DOCTYPE svg PUBLIC "-//W3C//DTD SVG 1.1//EN" "http://www.w3.org/Graphics/SVG/1.1/DTD/svg11.dtd">
<svg version="1.1" id="Layer_1" xmlns="http://www.w3.org/2000/svg" xmlns:xlink="http://www.w3.org/1999/xlink" x="0px" y="0px"
	 width="612px" height="792px" viewBox="0 0 612 792" enable-background="new 0 0 612 792" xml:space="preserve">
<g>
	<g>
		<path fill-rule="evenodd" clip-rule="evenodd" fill="#49B7AE" d="M110.353,456.946c0-101.857,0-203.713,0-305.57
			c0.223-1.588,0.423-3.18,0.672-4.764c2.774-17.646,16.76-32.751,34.162-36.954c2.725-0.658,5.498-0.966,8.259-1.376
			c101.857,0,203.713,0,305.57,0c1.59,0.223,3.184,0.423,4.77,0.673c17.645,2.775,32.756,16.77,36.95,34.166
			c0.657,2.724,0.964,5.495,1.374,8.255c0,43.785,0,87.569,0,131.354c-0.342-0.307-0.7-0.597-1.023-0.923
			c-3.645-3.681-7.271-7.38-10.909-11.067c-17.175-17.407-34.667-34.499-51.747-52.002c-4.611-4.726-9.326-9.352-13.998-14.018
			c-0.345-0.344-0.633-0.8-1.219-0.776l0.084-0.008c-0.113-0.08-0.227-0.159-0.34-0.239c-0.045-0.059-0.088-0.118-0.131-0.177
			c-0.039-0.125,0.051-0.352-0.229-0.286c-0.281-0.311-0.576-0.61-0.841-0.935c-6.37-7.835-13.479-14.937-21.341-21.266
			c-24.034-19.347-51.44-30.2-82.229-32.347c-14.416-1.005-28.696,0.158-42.757,3.535c-31.166,7.485-57.203,23.477-77.967,47.827
			c-21.651,25.391-33.368,54.938-35.652,88.201c-0.958,13.941,0.052,27.782,3.025,41.442c6.676,30.673,21.452,56.8,44.263,78.37
			c1.922,1.817,3.934,3.539,5.904,5.306c-0.096,0.314,0.159,0.207,0.294,0.244c0.132,0.104,0.264,0.208,0.396,0.312
			c-0.059,0.636,0.426,0.952,0.795,1.327c7.803,7.936,15.706,15.771,23.528,23.688c19.827,20.066,39.929,39.861,59.694,59.991
			c0.347,0.354,0.661,0.741,0.99,1.112c-49.085,0-98.169,0-147.254,0c-0.993-0.347-2.045-0.264-3.067-0.398
			c-19.032-2.496-34.676-16.757-38.886-35.447C110.953,461.799,110.747,459.359,110.353,456.946z"/>
		<path fill-rule="evenodd" clip-rule="evenodd" fill="#2EA390" d="M423.213,203.943c0.586-0.023,0.874,0.432,1.219,0.776
			c4.672,4.667,9.387,9.292,13.998,14.018c17.08,17.503,34.572,34.595,51.747,52.002c3.638,3.687,7.265,7.386,10.909,11.067
			c0.323,0.326,0.682,0.616,1.023,0.923c0,58.072,0,116.145,0,174.217c-0.223,1.587-0.419,3.177-0.671,4.759
			c-2.821,17.711-16.691,32.695-34.159,36.959c-2.725,0.664-5.5,0.973-8.264,1.375c-52.771,0-105.543,0-158.315,0
			c-0.33-0.371-0.643-0.758-0.99-1.112c-19.765-20.13-39.867-39.925-59.694-59.991c-7.822-7.917-15.725-15.752-23.528-23.688
			c-0.369-0.375-0.854-0.691-0.795-1.327c0.243,0.188,0.49,0.369,0.728,0.563c10.582,8.657,22.138,15.722,34.688,21.146
			c13.983,6.044,28.563,9.762,43.732,11.223c7.203,0.694,14.418,0.649,21.636,0.634c1.066-0.002,2.048-0.358,2.95-0.873
			c3.735-2.131,5.538-5.514,5.657-9.672c0.184-6.422,0.131-12.854,0.145-19.281c0.006-2.857,0.296-5.725-0.467-8.555
			c-0.941-3.498-4.154-6.865-8.45-6.585c-3.136,0.205-6.296,0.058-9.445,0.037c-10.55-0.067-20.874-1.626-30.927-4.845
			c-42.013-13.455-70.786-51.33-72.419-95.42c-0.528-14.253,1.791-28.064,6.996-41.365c19.239-49.163,72.383-76.896,124.828-62.402
			c50.887,14.063,83.104,64.536,74.634,116.688c-3.036,18.693-10.64,35.309-22.708,49.881c-2.643,3.191-5.541,6.13-8.615,8.938
			c-2.798,2.556-6.367,4.568-7.5,8.621c-0.07,0.254-0.242,0.478-0.354,0.722c-2.712,5.941-5.059,12.026-7.306,18.155
			c-2.709,7.389-5.604,14.705-8.684,21.948c-0.287,0.675-0.53,1.345-0.347,2.114c0.625,2.603,3.369,4.164,5.866,3.242
			c3.166-1.168,6.334-2.34,9.452-3.629c7.341-3.033,14.641-6.166,22.062-9.002c4.228-1.615,8.235-3.776,12.59-5.083
			c0.245-0.073,0.474-0.252,0.675-0.424c5.407-4.622,10.453-9.614,14.977-15.103c29.33-35.587,40.488-76.302,33.745-121.808
			c-3.608-24.354-13.19-46.375-27.877-66.153C425.041,206.404,424.127,205.173,423.213,203.943z M318.15,353.707
			c-0.561-1.406-1.104-2.631-1.541-3.892c-2.311-6.64-3.854-13.49-5.564-20.295c-1.373-5.463-2.303-11.045-4.328-16.335
			c-2.847-7.435-7.14-13.574-14.913-16.581c-0.036-0.014-0.072-0.027-0.109-0.037c-0.198-0.055-0.365-0.16-0.388-0.373
			c-0.034-0.308,0.24-0.359,0.441-0.444c0.318-0.134,0.648-0.236,0.971-0.359c13.15-5.025,20.867-15.6,21.193-29.581
			c0.301-12.931-5.631-23.942-18.943-29.419c-6.005-2.471-12.328-3.418-18.764-3.71c-11.85-0.538-23.634,0.072-35.337,2.087
			c-0.84,0.145-1.023,0.471-1.022,1.266c0.019,38.864,0.021,77.729-0.007,116.593c-0.001,0.979,0.351,1.102,1.184,1.095
			c4.377-0.035,8.756-0.058,13.133,0.013c1.106,0.018,1.305-0.349,1.303-1.355c-0.032-11.751-0.021-23.503-0.021-35.254
			c0-4.762,0.023-9.524-0.02-14.286c-0.008-0.923,0.185-1.301,1.188-1.236c1.376,0.089,2.764-0.001,4.146,0.026
			c4.678,0.092,9.369-0.29,14.029,0.447c5.716,0.903,10.481,3.363,13.785,8.273c2.014,2.994,3.409,6.281,4.289,9.753
			c1.837,7.248,3.523,14.534,5.337,21.788c0.92,3.682,1.927,7.347,3.459,10.837c0.204,0.464,0.316,0.996,1.068,0.992
			C307.826,353.693,312.932,353.707,318.15,353.707z M341.16,345.377c-0.328-0.22-0.306-0.547-0.367-0.842
			c-2.406-11.493-5.74-22.754-8.554-34.145c-0.134-0.542-0.4-0.72-0.96-0.712c-2.15,0.032-4.301,0.036-6.451-0.001
			c-0.681-0.011-0.863,0.137-0.637,0.821c0.494,1.492,0.925,3.005,1.378,4.511c3.704,12.3,7.413,24.599,11.093,36.907
			c0.245,0.82,0.58,1.169,1.489,1.124c1.686-0.084,3.38-0.061,5.067-0.007c0.729,0.023,1.076-0.186,1.299-0.913
			c0.597-1.942,1.309-3.848,1.943-5.778c2.791-8.485,6.004-16.836,8.058-25.554c0.193-0.821,0.235-1.693,0.687-2.508
			c0.066,0.145,0.111,0.211,0.127,0.283c2.572,11.396,6.648,22.337,10.063,33.479c0.23,0.753,0.54,1.029,1.345,0.995
			c1.687-0.07,3.38-0.069,5.067,0c0.839,0.034,1.195-0.245,1.446-1.046c1.628-5.196,3.309-10.375,4.977-15.559
			c2.76-8.578,5.513-17.158,8.301-25.727c0.262-0.805,0.196-1.059-0.718-1.031c-1.957,0.06-3.917,0.038-5.875,0.007
			c-0.615-0.009-0.962,0.102-1.143,0.789c-0.675,2.558-1.443,5.091-2.145,7.642c-2.31,8.391-4.99,16.683-6.713,25.23
			c-0.135,0.664-0.109,1.381-0.561,2.117c-0.109-0.315-0.187-0.485-0.229-0.663c-2.75-11.62-6.73-22.876-10.119-34.308
			c-0.189-0.641-0.488-0.828-1.132-0.81c-1.65,0.045-3.304,0.055-4.953-0.004c-0.69-0.025-0.913,0.271-1.097,0.855
			c-2.759,8.779-5.558,17.546-8.295,26.333C342.678,339.67,341.956,342.528,341.16,345.377z"/>
		<path fill-rule="evenodd" clip-rule="evenodd" fill="#FEFFFF" d="M153.446,108.283c-2.761,0.41-5.534,0.718-8.259,1.376
			c-17.402,4.203-31.388,19.307-34.162,36.954c-0.249,1.584-0.449,3.176-0.672,4.764c0-14.039,0.009-28.077-0.023-42.115
			c-0.001-0.83,0.171-1.003,1.001-1.001C125.369,108.292,139.407,108.283,153.446,108.283z"/>
		<path fill-rule="evenodd" clip-rule="evenodd" fill="#FEFFFF" d="M502.109,151.376c-0.41-2.76-0.717-5.531-1.374-8.255
			c-4.194-17.396-19.306-31.391-36.95-34.166c-1.586-0.25-3.18-0.45-4.77-0.673c14.058,0,28.115,0.008,42.172-0.022
			c0.789-0.001,0.945,0.155,0.944,0.944C502.102,123.262,502.109,137.319,502.109,151.376z"/>
		<path fill-rule="evenodd" clip-rule="evenodd" fill="#FEFFFF" d="M110.353,456.946c0.394,2.413,0.601,4.853,1.14,7.247
			c4.21,18.69,19.854,32.951,38.886,35.447c1.021,0.135,2.074,0.052,3.067,0.398c-14.057,0-28.114-0.008-42.171,0.023
			c-0.79,0.001-0.946-0.156-0.944-0.945C110.361,485.061,110.353,471.004,110.353,456.946z"/>
		<path fill-rule="evenodd" clip-rule="evenodd" fill="#FEFFFE" d="M459.016,500.039c2.764-0.402,5.539-0.711,8.264-1.375
			c17.468-4.264,31.338-19.248,34.159-36.959c0.252-1.582,0.448-3.172,0.671-4.759c0,14.058-0.009,28.114,0.022,42.171
			c0.001,0.789-0.155,0.946-0.944,0.945C487.131,500.031,473.073,500.039,459.016,500.039z"/>
		<path fill-rule="evenodd" clip-rule="evenodd" fill="#FEFEFE" d="M423.213,203.943c0.914,1.23,1.828,2.461,2.741,3.691
			c14.687,19.778,24.269,41.799,27.877,66.153c6.743,45.506-4.415,86.22-33.745,121.808c-4.523,5.489-9.569,10.481-14.977,15.103
			c-0.201,0.172-0.43,0.351-0.675,0.424c-4.354,1.307-8.362,3.468-12.59,5.083c-7.421,2.836-14.721,5.969-22.062,9.002
			c-3.118,1.289-6.286,2.461-9.452,3.629c-2.497,0.922-5.241-0.64-5.866-3.242c-0.184-0.77,0.06-1.439,0.347-2.114
			c3.08-7.243,5.975-14.56,8.684-21.948c2.247-6.129,4.594-12.214,7.306-18.155c0.111-0.244,0.283-0.468,0.354-0.722
			c1.133-4.053,4.702-6.065,7.5-8.621c3.074-2.809,5.973-5.748,8.615-8.938c12.068-14.572,19.672-31.188,22.708-49.881
			c8.471-52.153-23.747-102.625-74.634-116.688c-52.445-14.493-105.589,13.239-124.828,62.402
			c-5.205,13.301-7.523,27.112-6.996,41.365c1.634,44.09,30.406,81.965,72.419,95.42c10.054,3.219,20.377,4.777,30.927,4.845
			c3.149,0.021,6.309,0.168,9.445-0.037c4.296-0.28,7.509,3.087,8.45,6.585c0.763,2.83,0.473,5.697,0.467,8.555
			c-0.014,6.428,0.039,12.859-0.145,19.281c-0.119,4.158-1.922,7.541-5.657,9.672c-0.902,0.515-1.884,0.871-2.95,0.873
			c-7.218,0.016-14.433,0.061-21.636-0.634c-15.169-1.461-29.749-5.179-43.732-11.223c-12.549-5.424-24.105-12.488-34.688-21.146
			c-0.237-0.194-0.485-0.375-0.728-0.563c-0.132-0.104-0.264-0.208-0.396-0.312c-0.098-0.082-0.196-0.162-0.294-0.244
			c-1.97-1.767-3.982-3.488-5.904-5.306c-22.811-21.57-37.586-47.697-44.263-78.37c-2.974-13.66-3.983-27.5-3.025-41.442
			c2.284-33.264,14.001-62.811,35.652-88.201c20.764-24.35,46.801-40.342,77.967-47.827c14.061-3.377,28.341-4.54,42.757-3.535
			c30.789,2.146,58.195,13,82.229,32.347c7.861,6.329,14.971,13.431,21.341,21.266c0.265,0.325,0.56,0.624,0.841,0.935
			c0.076,0.095,0.152,0.19,0.229,0.286c0.043,0.059,0.086,0.118,0.131,0.177c0.113,0.08,0.227,0.16,0.34,0.239L423.213,203.943z
			 M308.906,423.992c3.456,0,6.913-0.015,10.369,0.014c0.682,0.005,0.941-0.112,0.818-0.881c-0.256-1.585-0.42-3.186-0.584-4.783
			c-0.072-0.703-0.441-0.82-1.074-0.814c-3.572,0.027-7.145,0.006-10.716,0.014c-13.992,0.035-27.581-2.279-40.737-7.046
			c-53.021-19.208-86.346-73.537-76.926-131.176c3.466-21.205,12.093-40.101,25.822-56.601
			c27.229-32.725,68.591-48.166,110.86-41.394c21.214,3.399,40.16,12.022,56.576,25.85c24.571,20.696,38.721,47.101,42.314,79.069
			c1.42,12.619,0.682,25.152-2.013,37.556c-5.196,23.919-16.925,44.184-34.376,61.233c-0.988,0.965-1.972,1.755-3.49,1.434
			c-0.551-0.116-1.158-0.08-1.723,0.003c-2.782,0.411-5.115-0.243-6.79-2.662c-0.527-0.763-0.926-0.656-1.351,0.205
			c-4.387,8.89-7.91,18.157-11.904,27.217c-0.188,0.429-0.209,0.768,0.143,1.146c2.248,2.418,4.479,4.852,6.709,7.286
			c0.367,0.402,0.741,0.438,1.232,0.208c1.111-0.521,2.238-1.006,3.369-1.484c6.785-2.877,13.572-5.748,20.359-8.623
			c1.657-0.701,3.6-1.072,4.911-2.184c3.156-2.674,6.198-5.503,9.199-8.357c3.005-2.858,5.687-6.038,8.286-9.273
			c19.064-23.732,29.775-50.776,32.109-81.132c1.025-13.328,0.269-26.566-2.406-39.651c-6.367-31.137-21.021-57.756-44.713-78.969
			c-32.706-29.285-71.119-40.944-114.653-35.277c-16.955,2.207-32.865,7.823-47.828,16.096
			c-44.596,24.659-73.218,72.425-74.096,123.602c-0.257,14.995,1.372,29.768,5.763,44.121
			c13.259,43.339,40.477,74.447,82.042,92.745c12.658,5.572,25.997,8.771,39.751,10.219c7.425,0.781,14.875,0.721,22.326,0.744
			c1.41,0.006,2.25-0.602,2.838-1.732c1.025-1.971,1.414-4.086,1.449-6.303c0.015-0.931-0.188-1.238-1.182-1.225
			c-4.224,0.059-8.449,0.033-12.673,0.023c-11.303-0.027-22.442-1.399-33.367-4.302c-29.95-7.957-54.571-24.126-73.223-48.841
			c-23.707-31.414-31.976-66.831-25.319-105.55c4.305-25.041,15.367-46.977,32.331-65.892
			c31.742-35.395,80.032-51.433,126.602-41.941c29.528,6.018,54.536,20.24,74.298,42.962
			c27.408,31.513,37.972,68.269,32.096,109.598c-3.071,21.601-11.445,41.143-24.271,58.78c-4.004,5.508-8.526,10.57-13.191,15.527
			c-2.352,2.498-4.73,4.44-8.409,3.678c-0.186-0.038-0.384-0.034-0.575-0.021c-0.641,0.044-0.863-0.244-0.869-0.884
			c-0.016-1.728-0.074-3.455-0.156-5.181c-0.022-0.476,0.158-0.777,0.473-1.099c1.929-1.977,3.896-3.92,5.746-5.971
			c27.699-30.712,38.304-66.583,31.693-107.328c-3.692-22.757-13.371-43.012-28.738-60.202
			c-28.586-31.973-64.477-46.149-107.239-42.596c-14.796,1.23-28.841,5.409-42.188,11.896
			c-38.708,18.815-65.734,56.705-69.965,100.349c-1.315,13.567-0.608,27.016,2.5,40.281c7.085,30.242,23.127,54.725,48.073,73.181
			C255.65,416.252,281.034,424.097,308.906,423.992z"/>
		<path fill-rule="evenodd" clip-rule="evenodd" fill="#2EA390" d="M422.826,203.519c-0.076-0.096-0.152-0.191-0.229-0.286
			C422.877,203.167,422.787,203.394,422.826,203.519z"/>
		<path fill-rule="evenodd" clip-rule="evenodd" fill="#2EA390" d="M215.003,413.365c0.098,0.082,0.196,0.162,0.294,0.244
			C215.162,413.572,214.907,413.68,215.003,413.365z"/>
		<path fill-rule="evenodd" clip-rule="evenodd" fill="#2EA390" d="M423.297,203.935c-0.113-0.08-0.227-0.159-0.34-0.239
			C423.07,203.776,423.184,203.855,423.297,203.935z"/>
		<path fill-rule="evenodd" clip-rule="evenodd" fill="#FEFFFE" d="M318.15,353.707c-5.219,0-10.324-0.014-15.43,0.014
			c-0.752,0.004-0.865-0.528-1.068-0.992c-1.533-3.49-2.539-7.155-3.459-10.837c-1.813-7.254-3.5-14.54-5.337-21.788
			c-0.88-3.472-2.274-6.759-4.289-9.753c-3.304-4.91-8.069-7.37-13.785-8.273c-4.66-0.736-9.352-0.355-14.029-0.447
			c-1.382-0.027-2.77,0.063-4.146-0.026c-1.004-0.065-1.197,0.313-1.188,1.236c0.043,4.762,0.02,9.524,0.02,14.286
			c0,11.751-0.011,23.503,0.021,35.254c0.002,1.006-0.196,1.373-1.303,1.355c-4.377-0.07-8.756-0.047-13.133-0.013
			c-0.833,0.007-1.185-0.116-1.184-1.095c0.028-38.864,0.026-77.729,0.007-116.593c0-0.795,0.183-1.122,1.022-1.266
			c11.703-2.015,23.488-2.625,35.337-2.087c6.436,0.292,12.759,1.239,18.764,3.71c13.312,5.478,19.244,16.488,18.943,29.419
			c-0.326,13.981-8.043,24.555-21.193,29.581c-0.322,0.123-0.653,0.226-0.971,0.359c-0.201,0.084-0.475,0.136-0.441,0.444
			c0.023,0.213,0.19,0.318,0.388,0.373c0.037,0.01,0.073,0.023,0.109,0.037c7.773,3.006,12.065,9.146,14.913,16.581
			c2.025,5.29,2.955,10.872,4.328,16.335c1.711,6.805,3.254,13.655,5.564,20.295C317.047,351.076,317.59,352.3,318.15,353.707z
			 M255.438,267.783c0,6.949,0.018,13.898-0.021,20.847c-0.005,0.962,0.275,1.229,1.23,1.22c4.875-0.046,9.751-0.001,14.627-0.028
			c3.738-0.021,7.422-0.465,11.01-1.575c14.021-4.334,20.457-19.599,13.597-32.296c-2.868-5.308-7.553-8.269-13.179-9.846
			c-8.734-2.45-17.549-1.883-26.366-0.45c-0.791,0.128-0.914,0.573-0.912,1.283C255.448,253.885,255.438,260.834,255.438,267.783z"
			/>
		<path fill-rule="evenodd" clip-rule="evenodd" fill="#FEFEFE" d="M341.16,345.377c0.796-2.849,1.518-5.707,2.393-8.517
			c2.737-8.786,5.536-17.553,8.295-26.333c0.184-0.583,0.406-0.88,1.097-0.855c1.649,0.059,3.303,0.049,4.953,0.004
			c0.644-0.018,0.942,0.169,1.132,0.81c3.389,11.432,7.369,22.688,10.119,34.308c0.042,0.178,0.119,0.347,0.229,0.663
			c0.451-0.736,0.426-1.454,0.561-2.117c1.723-8.547,4.403-16.839,6.713-25.23c0.701-2.551,1.47-5.084,2.145-7.642
			c0.181-0.687,0.527-0.798,1.143-0.789c1.958,0.031,3.918,0.053,5.875-0.007c0.914-0.028,0.979,0.226,0.718,1.031
			c-2.788,8.569-5.541,17.149-8.301,25.727c-1.668,5.184-3.349,10.363-4.977,15.559c-0.251,0.802-0.607,1.081-1.446,1.046
			c-1.688-0.069-3.381-0.07-5.067,0c-0.805,0.034-1.114-0.242-1.345-0.995c-3.414-11.142-7.49-22.083-10.063-33.479
			c-0.016-0.072-0.061-0.138-0.127-0.283c-0.451,0.814-0.493,1.687-0.687,2.508c-2.054,8.717-5.267,17.069-8.058,25.554
			c-0.635,1.93-1.347,3.836-1.943,5.778c-0.223,0.727-0.569,0.936-1.299,0.913c-1.688-0.054-3.382-0.077-5.067,0.007
			c-0.909,0.045-1.244-0.304-1.489-1.124c-3.68-12.308-7.389-24.606-11.093-36.907c-0.453-1.505-0.884-3.019-1.378-4.511
			c-0.227-0.685-0.044-0.833,0.637-0.821c2.15,0.037,4.301,0.033,6.451,0.001c0.56-0.008,0.826,0.169,0.96,0.712
			c2.813,11.391,6.147,22.651,8.554,34.145C340.854,344.83,340.832,345.157,341.16,345.377z"/>
		<path fill-rule="evenodd" clip-rule="evenodd" fill="#2FA490" d="M308.906,423.992c-27.873,0.104-53.256-7.74-75.689-24.338
			c-24.946-18.457-40.988-42.939-48.073-73.181c-3.108-13.265-3.815-26.714-2.5-40.281c4.231-43.645,31.257-81.534,69.965-100.349
			c13.347-6.487,27.393-10.667,42.188-11.896c42.762-3.554,78.653,10.623,107.239,42.596c15.367,17.189,25.046,37.445,28.738,60.202
			c6.61,40.744-3.994,76.616-31.693,107.328c-1.85,2.05-3.817,3.994-5.746,5.971c-0.314,0.322-0.495,0.623-0.473,1.099
			c0.082,1.726,0.141,3.454,0.156,5.181c0.006,0.64,0.229,0.928,0.869,0.884c0.191-0.013,0.39-0.017,0.575,0.021
			c3.679,0.762,6.058-1.181,8.409-3.678c4.665-4.957,9.188-10.019,13.191-15.527c12.826-17.637,21.2-37.179,24.271-58.78
			c5.876-41.329-4.688-78.084-32.096-109.598c-19.762-22.722-44.77-36.944-74.298-42.962c-46.57-9.492-94.86,6.546-126.602,41.941
			c-16.963,18.915-28.026,40.851-32.331,65.892c-6.656,38.719,1.612,74.137,25.319,105.55
			c18.652,24.715,43.272,40.884,73.223,48.841c10.925,2.902,22.063,4.274,33.367,4.302c4.224,0.01,8.45,0.035,12.673-0.023
			c0.994-0.014,1.196,0.294,1.182,1.225c-0.035,2.217-0.424,4.332-1.449,6.303c-0.588,1.131-1.428,1.738-2.838,1.732
			c-7.451-0.023-14.901,0.037-22.326-0.744c-13.754-1.447-27.093-4.646-39.751-10.219c-41.564-18.298-68.782-49.406-82.042-92.745
			c-4.391-14.353-6.02-29.125-5.763-44.121c0.878-51.177,29.5-98.943,74.096-123.602c14.962-8.273,30.873-13.889,47.828-16.096
			c43.534-5.667,81.947,5.993,114.653,35.277c23.691,21.213,38.346,47.832,44.713,78.969c2.675,13.085,3.432,26.324,2.406,39.651
			c-2.334,30.356-13.045,57.399-32.109,81.132c-2.6,3.235-5.281,6.415-8.286,9.273c-3.001,2.854-6.043,5.684-9.199,8.357
			c-1.312,1.111-3.254,1.482-4.911,2.184c-6.787,2.875-13.574,5.746-20.359,8.623c-1.131,0.479-2.258,0.964-3.369,1.484
			c-0.491,0.23-0.865,0.194-1.232-0.208c-2.23-2.435-4.461-4.868-6.709-7.286c-0.352-0.378-0.33-0.717-0.143-1.146
			c3.994-9.061,7.518-18.327,11.904-27.217c0.425-0.861,0.823-0.967,1.351-0.205c1.675,2.419,4.008,3.073,6.79,2.662
			c0.564-0.083,1.172-0.119,1.723-0.003c1.519,0.321,2.502-0.469,3.49-1.434c17.451-17.049,29.18-37.313,34.376-61.233
			c2.694-12.404,3.433-24.937,2.013-37.556c-3.594-31.968-17.743-58.374-42.314-79.069c-16.416-13.828-35.362-22.451-56.576-25.85
			c-42.269-6.772-83.63,8.668-110.86,41.394c-13.729,16.5-22.356,35.396-25.822,56.601c-9.42,57.64,23.905,111.968,76.926,131.176
			c13.156,4.767,26.745,7.081,40.737,7.046c3.571-0.008,7.144,0.014,10.716-0.014c0.633-0.006,1.002,0.111,1.074,0.814
			c0.164,1.598,0.328,3.198,0.584,4.783c0.123,0.769-0.137,0.886-0.818,0.881C315.819,423.978,312.362,423.992,308.906,423.992z"/>
		<path fill-rule="evenodd" clip-rule="evenodd" fill="#2EA390" d="M255.438,267.783c0-6.949,0.009-13.897-0.013-20.846
			c-0.002-0.71,0.121-1.154,0.912-1.283c8.817-1.433,17.632-2,26.366,0.45c5.625,1.578,10.311,4.539,13.179,9.846
			c6.86,12.698,0.425,27.962-13.597,32.296c-3.587,1.109-7.271,1.554-11.01,1.575c-4.875,0.027-9.751-0.018-14.627,0.028
			c-0.955,0.009-1.235-0.257-1.23-1.22C255.456,281.681,255.438,274.731,255.438,267.783z"/>
	</g>
</g>
</svg>
